<?xml version="1.0" encoding="UTF-8" standalone="no"?>
<!-- Created with Inkscape (http://www.inkscape.org/) -->

<svg
   xmlns:dc="http://purl.org/dc/elements/1.1/"
   xmlns:cc="http://creativecommons.org/ns#"
   xmlns:rdf="http://www.w3.org/1999/02/22-rdf-syntax-ns#"
   xmlns:svg="http://www.w3.org/2000/svg"
   xmlns="http://www.w3.org/2000/svg"
   xmlns:sodipodi="http://sodipodi.sourceforge.net/DTD/sodipodi-0.dtd"
   xmlns:inkscape="http://www.inkscape.org/namespaces/inkscape"
   width="720"
   height="250"
   viewBox="0 0 190.5 66.145834"
   version="1.1"
   id="svg1835"
   inkscape:version="0.92.2 5c3e80d, 2017-08-06"
   sodipodi:docname="captchaflow_paths_404_720x250px.svg">
  <defs
     id="defs1829" />
  <sodipodi:namedview
     id="base"
     pagecolor="#ffffff"
     bordercolor="#666666"
     borderopacity="1.0"
     inkscape:pageopacity="0.0"
     inkscape:pageshadow="2"
     inkscape:zoom="0.45254834"
     inkscape:cx="314.41648"
     inkscape:cy="168.88358"
     inkscape:document-units="px"
     inkscape:current-layer="layer1"
     showgrid="false"
     fit-margin-top="0"
     fit-margin-left="0"
     fit-margin-right="0"
     fit-margin-bottom="0"
     inkscape:showpageshadow="false"
     units="px"
     inkscape:window-width="1920"
     inkscape:window-height="1035"
     inkscape:window-x="1920"
     inkscape:window-y="120"
     inkscape:window-maximized="0" />
  <metadata
     id="metadata1832">
    <rdf:RDF>
      <cc:Work
         rdf:about="">
        <dc:format>image/svg+xml</dc:format>
        <dc:type
           rdf:resource="http://purl.org/dc/dcmitype/StillImage" />
        <dc:title></dc:title>
      </cc:Work>
    </rdf:RDF>
  </metadata>
  <g
     inkscape:label="Layer 1"
     inkscape:groupmode="layer"
     id="layer1"
     transform="translate(6.0475758,-118.68843)">
    <path
       style="font-style:italic;font-variant:normal;font-weight:900;font-stretch:normal;font-size:medium;line-height:1000%;font-family:'Mark Pro';-inkscape-font-specification:'Mark Pro Heavy Italic';text-align:start;letter-spacing:0.01584257px;word-spacing:3.20019817px;text-anchor:start;fill:#1ebcd2;fill-opacity:1;stroke:none;stroke-width:0.79212821px;stroke-linecap:butt;stroke-linejoin:miter;stroke-opacity:1"
       d="M 59.311224,156.47475 H 59.717918 L 63.242404,150.34258 58.445053,137.32864 H 55.409136 Z"
       id="path3044"
       inkscape:connector-curvature="0"
       sodipodi:nodetypes="cccccc" />
    <path
       inkscape:connector-curvature="0"
       style="color:#000000;clip-rule:nonzero;display:inline;overflow:visible;visibility:visible;opacity:1;isolation:auto;mix-blend-mode:normal;color-interpolation:sRGB;color-interpolation-filters:linearRGB;solid-color:#000000;solid-opacity:1;fill:#ff0045;fill-opacity:1;fill-rule:nonzero;stroke:none;stroke-width:12.14290428;stroke-linecap:square;stroke-linejoin:miter;stroke-miterlimit:4;stroke-dasharray:none;stroke-dashoffset:0;stroke-opacity:1;paint-order:markers stroke fill;color-rendering:auto;image-rendering:auto;shape-rendering:auto;text-rendering:auto;enable-background:accumulate"
       d="M 33.347951,118.78403 A 32.977134,32.977134 0 0 0 12.617435,126.13242 H 10.758633 C 10.744587,125.33336 10.099201,124.69375 9.2967071,124.69375 H 1.771585 C 0.96021664,124.69375 0.30707497,125.34686 0.30707497,126.15826 V 127.82586 C -3.4959537,130.01712 -6.0475758,134.11941 -6.0475758,138.8412 V 164.497 C -6.0475758,171.53743 -0.37968335,177.20527 6.6606923,177.20527 H 12.395226 A 32.977134,32.977134 0 0 0 33.347951,184.73866 32.977134,32.977134 0 0 0 54.288277,177.20527 H 60.035728 C 67.076055,177.20527 72.74348,171.53743 72.74348,164.497 V 163.64228 H 60.528721 A 29.679418,29.679418 0 0 1 33.347951,181.44067 29.679418,29.679418 0 0 1 3.6686268,151.76135 29.679418,29.679418 0 0 1 33.347951,122.0815 29.679418,29.679418 0 0 1 57.582649,134.69055 H 72.051531 C 70.338439,129.70107 65.620807,126.13242 60.035728,126.13242 H 54.057798 A 32.977134,32.977134 0 0 0 33.347951,118.78403 Z"
       id="path1748" />
    <path
       inkscape:connector-curvature="0"
       id="path3025"
       style="font-style:italic;font-variant:normal;font-weight:900;font-stretch:normal;font-size:medium;line-height:1000%;font-family:'Mark Pro';-inkscape-font-specification:'Mark Pro Heavy Italic';text-align:start;letter-spacing:0.01584257px;word-spacing:3.20019817px;text-anchor:start;fill:#1ebcd2;fill-opacity:1;stroke:none;stroke-width:0.79212826px;stroke-linecap:butt;stroke-linejoin:miter;stroke-opacity:1"
       d="M 81.136707,153.53458 H 76.928921 L 75.441832,160.98692 H 69.020312 L 73.751959,137.32869 H 84.296771 Q 88.707341,137.32869 90.633797,139.55932 92.577152,141.77306 91.833607,145.50768 91.106962,149.17471 88.301771,151.35464 85.496581,153.53458 81.136707,153.53458 Z M 83.080061,143.09116 H 79.024365 L 78.061137,147.9073 H 82.116833 Q 83.333543,147.9073 84.229176,147.28205 85.124809,146.6399 85.344492,145.50768 85.581075,144.37546 84.938923,143.73331 84.296771,143.09116 83.080061,143.09116 Z" />
    <path
       inkscape:connector-curvature="0"
       id="path3027"
       style="font-style:italic;font-variant:normal;font-weight:900;font-stretch:normal;font-size:medium;line-height:1000%;font-family:'Mark Pro';-inkscape-font-specification:'Mark Pro Heavy Italic';text-align:start;letter-spacing:0.01584257px;word-spacing:3.20019817px;text-anchor:start;fill:#1ebcd2;fill-opacity:1;stroke:none;stroke-width:0.79212826px;stroke-linecap:butt;stroke-linejoin:miter;stroke-opacity:1"
       d="M 114.46841,137.32869 113.2855,143.24325 H 106.5598 L 103.01107,160.98692 H 96.589547 L 100.13828,143.24325 H 93.412585 L 94.595496,137.32869 Z" />
    <path
       inkscape:connector-curvature="0"
       id="path3029"
       style="font-style:italic;font-variant:normal;font-weight:900;font-stretch:normal;font-size:medium;line-height:1000%;font-family:'Mark Pro';-inkscape-font-specification:'Mark Pro Heavy Italic';text-align:start;letter-spacing:0.01584257px;word-spacing:3.20019817px;text-anchor:start;fill:#1ebcd2;fill-opacity:1;stroke:none;stroke-width:0.79212826px;stroke-linecap:butt;stroke-linejoin:miter;stroke-opacity:1"
       d="M 127.23012,136.88932 Q 130.72816,136.88932 133.29677,138.47781 135.86538,140.06629 136.82861,142.88838 L 130.50848,146.03154 Q 129.34246,143.04046 125.89512,143.04046 123.41101,143.04046 121.45075,144.76414 119.5074,146.47091 118.96664,149.15781 118.39208,152.03059 119.76088,153.65287 121.12968,155.27515 123.4786,155.27515 126.87525,155.27515 129.41006,152.30097 L 133.93892,155.9849 Q 131.70829,158.55351 128.73411,159.9899 125.75993,161.42629 122.32949,161.42629 118.71316,161.42629 116.17835,159.87161 113.64354,158.31692 112.61272,155.51173 111.58189,152.70654 112.29164,149.15781 113.00139,145.60907 115.14753,142.80388 117.29367,139.99869 120.45373,138.44401 123.61379,136.88932 127.23012,136.88932 Z" />
    <path
       inkscape:connector-curvature="0"
       id="path3031"
       style="font-style:italic;font-variant:normal;font-weight:900;font-stretch:normal;font-size:medium;line-height:1000%;font-family:'Mark Pro';-inkscape-font-specification:'Mark Pro Heavy Italic';text-align:start;letter-spacing:0.01584257px;word-spacing:3.20019817px;text-anchor:start;fill:#1ebcd2;fill-opacity:1;stroke:none;stroke-width:0.79212826px;stroke-linecap:butt;stroke-linejoin:miter;stroke-opacity:1"
       d="M 146.75979,137.32869 145.00232,146.08224 H 153.75587 L 155.51333,137.32869 H 161.93485 L 157.20321,160.98692 H 150.78169 L 152.58985,151.9799 H 143.83631 L 142.02814,160.98692 H 135.60662 L 140.33827,137.32869 Z" />
    <path
       inkscape:connector-curvature="0"
       id="path3033"
       style="font-style:italic;font-variant:normal;font-weight:900;font-stretch:normal;font-size:medium;line-height:1000%;font-family:'Mark Pro';-inkscape-font-specification:'Mark Pro Heavy Italic';text-align:start;letter-spacing:0.01584257px;word-spacing:3.20019817px;text-anchor:start;fill:#1ebcd2;fill-opacity:1;stroke:none;stroke-width:0.79212826px;stroke-linecap:butt;stroke-linejoin:miter;stroke-opacity:1"
       d="M 180.22773,137.32869 184.45242,160.98692 H 177.64223 L 176.96628,156.47496 H 168.12824 L 165.67792,160.98692 H 158.96912 L 172.6571,137.32869 Z M 175.10742,143.75021 171.2714,150.74629 H 176.12134 Z" />
    <path
       style="color:#000000;clip-rule:nonzero;display:inline;overflow:visible;visibility:visible;opacity:1;isolation:auto;mix-blend-mode:normal;color-interpolation:sRGB;color-interpolation-filters:linearRGB;solid-color:#000000;solid-opacity:1;fill:#1594a2;fill-opacity:1;fill-rule:nonzero;stroke:none;stroke-width:6.32457352;stroke-linecap:square;stroke-linejoin:miter;stroke-miterlimit:4;stroke-dasharray:none;stroke-dashoffset:0;stroke-opacity:1;paint-order:markers stroke fill;color-rendering:auto;image-rendering:auto;shape-rendering:auto;text-rendering:auto;enable-background:accumulate"
       d="M 33.348009,125.37954 A 26.381651,26.381651 0 0 0 6.966312,151.76117 26.381651,26.381651 0 0 0 33.348009,178.14291 26.381651,26.381651 0 0 0 56.893968,163.65038 L 56.883673,163.63443 40.188217,163.63393 H 26.478949 L 19.624321,151.76117 26.478949,139.88853 40.188217,139.88903 45.519581,149.12333 53.671242,135.00397 53.704719,135.00135 A 26.381651,26.381651 0 0 0 33.348009,125.37954 Z"
       id="path1758"
       inkscape:connector-curvature="0" />
    <path
       inkscape:connector-curvature="0"
       style="color:#000000;clip-rule:nonzero;display:inline;overflow:visible;visibility:visible;opacity:1;isolation:auto;mix-blend-mode:normal;color-interpolation:sRGB;color-interpolation-filters:linearRGB;solid-color:#000000;solid-opacity:1;fill:#1ebcd2;fill-opacity:1;fill-rule:nonzero;stroke:none;stroke-width:3.99270701;stroke-linecap:square;stroke-linejoin:miter;stroke-miterlimit:4;stroke-dasharray:none;stroke-dashoffset:0;stroke-opacity:1;paint-order:markers stroke fill;color-rendering:auto;image-rendering:auto;shape-rendering:auto;text-rendering:auto;enable-background:accumulate"
       d="M 56.883342,163.64234 29.525327,163.64215 37.68313,177.77193 C 45.45265,176.47726 52.237383,171.77895 56.182443,164.96147 56.428477,164.52846 56.662207,164.08858 56.883342,163.64234 Z"
       id="path1760"
       sodipodi:nodetypes="ccccc" />
    <path
       sodipodi:nodetypes="ccccc"
       id="path1762"
       d="M 21.147327,154.40788 12.995936,168.52651 C 14.994377,170.96813 17.414567,173.0315 20.141549,174.61858 24.592988,177.1839 29.696583,178.39373 34.825875,178.09957 Z"
       style="color:#000000;clip-rule:nonzero;display:inline;overflow:visible;visibility:visible;opacity:1;isolation:auto;mix-blend-mode:normal;color-interpolation:sRGB;color-interpolation-filters:linearRGB;solid-color:#000000;solid-opacity:1;fill:#1ebcd2;fill-opacity:1;fill-rule:nonzero;stroke:none;stroke-width:3.99270701;stroke-linecap:square;stroke-linejoin:miter;stroke-miterlimit:4;stroke-dasharray:none;stroke-dashoffset:0;stroke-opacity:1;paint-order:markers stroke fill;color-rendering:auto;image-rendering:auto;shape-rendering:auto;text-rendering:auto;enable-background:accumulate"
       inkscape:connector-curvature="0" />
    <path
       inkscape:connector-curvature="0"
       style="color:#000000;clip-rule:nonzero;display:inline;overflow:visible;visibility:visible;opacity:1;isolation:auto;mix-blend-mode:normal;color-interpolation:sRGB;color-interpolation-filters:linearRGB;solid-color:#000000;solid-opacity:1;fill:#1ebcd2;fill-opacity:1;fill-rule:nonzero;stroke:none;stroke-width:3.99270701;stroke-linecap:square;stroke-linejoin:miter;stroke-miterlimit:4;stroke-dasharray:none;stroke-dashoffset:0;stroke-opacity:1;paint-order:markers stroke fill;color-rendering:auto;image-rendering:auto;shape-rendering:auto;text-rendering:auto;enable-background:accumulate"
       d="M 24.955433,142.5353 8.6250398,142.53514 C 5.6960185,150.40088 6.6843251,159.19098 11.286896,166.20991 Z"
       id="path1764"
       sodipodi:nodetypes="cccc" />
    <path
       sodipodi:nodetypes="ccccc"
       id="path1766"
       d="M 28.983289,125.76699 C 21.213889,127.06184 14.429325,131.76023 10.484414,138.5777 10.23838,139.01071 10.00466,139.4506 9.7835354,139.89684 L 37.14152,139.89701 Z"
       style="color:#000000;clip-rule:nonzero;display:inline;overflow:visible;visibility:visible;opacity:1;isolation:auto;mix-blend-mode:normal;color-interpolation:sRGB;color-interpolation-filters:linearRGB;solid-color:#000000;solid-opacity:1;fill:#1ebcd2;fill-opacity:1;fill-rule:nonzero;stroke:none;stroke-width:3.99270701;stroke-linecap:square;stroke-linejoin:miter;stroke-miterlimit:4;stroke-dasharray:none;stroke-dashoffset:0;stroke-opacity:1;paint-order:markers stroke fill;color-rendering:auto;image-rendering:auto;shape-rendering:auto;text-rendering:auto;enable-background:accumulate"
       inkscape:connector-curvature="0" />
    <path
       inkscape:connector-curvature="0"
       style="color:#000000;clip-rule:nonzero;display:inline;overflow:visible;visibility:visible;opacity:1;isolation:auto;mix-blend-mode:normal;color-interpolation:sRGB;color-interpolation-filters:linearRGB;solid-color:#000000;solid-opacity:1;fill:#1ebcd2;fill-opacity:1;fill-rule:nonzero;stroke:none;stroke-width:3.99270701;stroke-linecap:square;stroke-linejoin:miter;stroke-miterlimit:4;stroke-dasharray:none;stroke-dashoffset:0;stroke-opacity:1;paint-order:markers stroke fill;color-rendering:auto;image-rendering:auto;shape-rendering:auto;text-rendering:auto;enable-background:accumulate"
       d="M 46.525308,128.92058 C 42.073889,126.35498 36.970225,125.14492 31.840802,125.43891 L 45.519531,149.13129 53.671181,135.01222 C 51.672629,132.57073 49.25235,130.50751 46.525308,128.92058 Z"
       id="path1768"
       sodipodi:nodetypes="ccccc" />
    <path
       d="M 91.15665,170.42368 81.353275,175.50991 83.387715,165.33758 Z"
       style="font-style:italic;font-variant:normal;font-weight:900;font-stretch:normal;font-size:medium;line-height:1000%;font-family:'Mark Pro';-inkscape-font-specification:'Mark Pro Heavy Italic';text-align:end;letter-spacing:0px;word-spacing:1.4192754px;text-anchor:end;fill:#ff0045;fill-opacity:1;stroke:none;stroke-width:0.52398372px;stroke-linecap:butt;stroke-linejoin:miter;stroke-opacity:1"
       id="path1776"
       inkscape:connector-curvature="0" />
    <path
       style="font-style:italic;font-variant:normal;font-weight:900;font-stretch:normal;font-size:medium;line-height:1000%;font-family:'Mark Pro';-inkscape-font-specification:'Mark Pro Heavy Italic';text-align:start;letter-spacing:0.01584257px;word-spacing:3.20019817px;text-anchor:start;fill:#1ebcd2;fill-opacity:1;stroke:none;stroke-width:0.79212821px;stroke-linecap:butt;stroke-linejoin:miter;stroke-opacity:1"
       d="M 55.409136,137.32864 C 59.144137,143.02447 60.498434,149.88659 59.311224,156.47475 H 59.717918 L 60.393847,160.98714 H 67.204282 L 62.979733,137.32864 Z M 55.409136,137.32864 41.721084,160.98714 H 41.749506 Z"
       id="path3023"
       inkscape:connector-curvature="0" />
    <path
       id="path1772"
       d="M 55.409019,137.32871 41.740221,161.0037 58.070888,161.00345 C 60.999893,153.13767 60.011588,144.34758 55.409019,137.32871 Z"
       style="color:#000000;clip-rule:nonzero;display:inline;overflow:visible;visibility:visible;opacity:1;isolation:auto;mix-blend-mode:normal;color-interpolation:sRGB;color-interpolation-filters:linearRGB;solid-color:#000000;solid-opacity:1;fill:#1594a2;fill-opacity:1;fill-rule:nonzero;stroke:none;stroke-width:3.99270701;stroke-linecap:square;stroke-linejoin:miter;stroke-miterlimit:4;stroke-dasharray:none;stroke-dashoffset:0;stroke-opacity:1;paint-order:markers stroke fill;color-rendering:auto;image-rendering:auto;shape-rendering:auto;text-rendering:auto;enable-background:accumulate"
       inkscape:connector-curvature="0"
       sodipodi:nodetypes="cccc" />
    <g
       id="g894"
       transform="translate(0,0.111755)">
      <path
         d="M 111.00481,174.53032 H 104.36642 L 104.96585,171.5332 113.17884,163.6423 H 116.35489 L 114.7445,171.70319 H 116.39068 L 115.82704,174.53032 H 114.18086 L 113.6888,176.98169 H 110.51275 Z M 111.56845,171.70319 112.39154,167.57881 108.06138,171.70319 Z"
         style="font-style:italic;font-variant:normal;font-weight:normal;font-stretch:normal;font-size:medium;line-height:1000%;font-family:'Arial Black';-inkscape-font-specification:'Arial Black, ';text-align:center;letter-spacing:0.00858876px;word-spacing:1.73492789px;text-anchor:middle;fill:#ff0045;fill-opacity:1;stroke:none;stroke-width:0.42943758px;stroke-linecap:butt;stroke-linejoin:miter;stroke-opacity:1"
         id="path846"
         inkscape:connector-curvature="0" />
      <path
         d="M 129.89594,170.2583 Q 130.63851,166.51863 132.28468,165.02454 133.93086,163.53046 136.68642,163.53046 138.01052,163.53046 138.79782,163.86148 139.58512,164.18356 140.01456,164.71141 140.444,165.23031 140.63188,165.81183 140.8287,166.38442 140.86449,167.15384 140.93606,168.62107 140.62293,170.21357 139.9072,173.78327 138.36838,175.4384 136.82957,177.09352 133.87718,177.09352 132.22206,177.09352 131.3095,176.56567 130.39695,176.03782 129.94067,175.01791 129.61859,174.29323 129.6007,173.0407 129.59175,171.77923 129.89594,170.2583 Z M 133.51037,170.26725 Q 133.00936,172.77231 133.26881,173.6938 133.52826,174.60636 134.36925,174.60636 134.92394,174.60636 135.40705,174.22165 135.89017,173.828 136.24804,172.98703 136.61485,172.14605 136.96376,170.36566 137.49162,167.75325 137.22322,166.85859 136.96376,165.95498 136.07805,165.95498 135.17444,165.95498 134.58396,166.87648 134.00243,167.78905 133.51037,170.26725 Z"
         style="font-style:italic;font-variant:normal;font-weight:normal;font-stretch:normal;font-size:medium;line-height:1000%;font-family:'Arial Black';-inkscape-font-specification:'Arial Black, ';text-align:center;letter-spacing:0.00858876px;word-spacing:1.73492789px;text-anchor:middle;fill:#ff0045;fill-opacity:1;stroke:none;stroke-width:0.42943758px;stroke-linecap:butt;stroke-linejoin:miter;stroke-opacity:1"
         id="path848"
         inkscape:connector-curvature="0" />
      <path
         d="M 160.72597,174.53032 H 154.08758 L 154.687,171.5332 162.89999,163.6423 H 166.07604 L 164.46565,171.70319 H 166.11183 L 165.54819,174.53032 H 163.90201 L 163.40995,176.98169 H 160.2339 Z M 161.2896,171.70319 162.11269,167.57881 157.78253,171.70319 Z"
         style="font-style:italic;font-variant:normal;font-weight:normal;font-stretch:normal;font-size:medium;line-height:1000%;font-family:'Arial Black';-inkscape-font-specification:'Arial Black, ';text-align:center;letter-spacing:0.00858876px;word-spacing:1.73492789px;text-anchor:middle;fill:#ff0045;fill-opacity:1;stroke:none;stroke-width:0.42943758px;stroke-linecap:butt;stroke-linejoin:miter;stroke-opacity:1"
         id="path850"
         inkscape:connector-curvature="0" />
    </g>
  </g>
</svg>
