<?xml version="1.0" encoding="UTF-8" standalone="no"?>
<!-- Created with Inkscape (http://www.inkscape.org/) -->

<svg
   xmlns:dc="http://purl.org/dc/elements/1.1/"
   xmlns:cc="http://creativecommons.org/ns#"
   xmlns:rdf="http://www.w3.org/1999/02/22-rdf-syntax-ns#"
   xmlns:svg="http://www.w3.org/2000/svg"
   xmlns="http://www.w3.org/2000/svg"
   xmlns:sodipodi="http://sodipodi.sourceforge.net/DTD/sodipodi-0.dtd"
   xmlns:inkscape="http://www.inkscape.org/namespaces/inkscape"
   width="720"
   height="250"
   viewBox="0 0 190.5 66.145834"
   version="1.1"
   id="svg1835"
   inkscape:version="0.92.2 5c3e80d, 2017-08-06"
   sodipodi:docname="captchaflow_paths_720x250px.svg">
  <defs
     id="defs1829" />
  <sodipodi:namedview
     id="base"
     pagecolor="#ffffff"
     bordercolor="#666666"
     borderopacity="1.0"
     inkscape:pageopacity="0.0"
     inkscape:pageshadow="2"
     inkscape:zoom="0.97986114"
     inkscape:cx="438.01822"
     inkscape:cy="-105.73022"
     inkscape:document-units="px"
     inkscape:current-layer="layer1"
     showgrid="false"
     fit-margin-top="0"
     fit-margin-left="0"
     fit-margin-right="0"
     fit-margin-bottom="0"
     inkscape:showpageshadow="false"
     units="px"
     inkscape:window-width="1920"
     inkscape:window-height="1155"
     inkscape:window-x="0"
     inkscape:window-y="1"
     inkscape:window-maximized="1" />
  <metadata
     id="metadata1832">
    <rdf:RDF>
      <cc:Work
         rdf:about="">
        <dc:format>image/svg+xml</dc:format>
        <dc:type
           rdf:resource="http://purl.org/dc/dcmitype/StillImage" />
        <dc:title />
      </cc:Work>
    </rdf:RDF>
  </metadata>
  <g
     inkscape:label="Layer 1"
     inkscape:groupmode="layer"
     id="layer1"
     transform="translate(6.0475758,-118.68843)">
    <g
       id="g854"
       inkscape:export-xdpi="96"
       inkscape:export-ydpi="96">
      <path
         sodipodi:nodetypes="cccccc"
         inkscape:connector-curvature="0"
         id="path3044"
         transform="matrix(0.26458333,0,0,0.26458333,-6.0475758,118.68843)"
         d="M 247.02539,142.81445 H 248.5625 L 261.88339,119.63772 243.75167,70.451172 232.27734,70.451172 Z"
         style="font-style:italic;font-variant:normal;font-weight:900;font-stretch:normal;font-size:medium;line-height:1000%;font-family:'Mark Pro';-inkscape-font-specification:'Mark Pro Heavy Italic';text-align:start;letter-spacing:0.01584257px;word-spacing:3.20019817px;text-anchor:start;fill:#1ebcd2;fill-opacity:1;stroke:none;stroke-width:2.9938705px;stroke-linecap:butt;stroke-linejoin:miter;stroke-opacity:1" />
      <path
         d="M 111.4212,168.99979 110.77212,172.27426 H 104.43621 L 103.44805,177.20541 H 99.766634 L 102.47925,163.64225 H 112.98096 L 112.32218,166.91685 H 105.50189 L 105.0853,168.99979 Z"
         style="font-style:italic;font-variant:normal;font-weight:900;font-stretch:normal;font-size:medium;line-height:1000%;font-family:'Mark Pro';-inkscape-font-specification:'Mark Pro Heavy Italic';text-align:end;letter-spacing:11.48291683px;word-spacing:1.4192754px;text-anchor:end;fill:#ffffff;fill-opacity:1;stroke:none;stroke-width:0.45412132px;stroke-linecap:butt;stroke-linejoin:miter;stroke-opacity:1"
         id="path1738"
         inkscape:connector-curvature="0" />
      <path
         d="M 132.36454,173.81465 131.68639,177.20541 H 121.47533 L 124.18795,163.64225 H 127.86936 L 125.83489,173.81465 Z"
         style="font-style:italic;font-variant:normal;font-weight:900;font-stretch:normal;font-size:medium;line-height:1000%;font-family:'Mark Pro';-inkscape-font-specification:'Mark Pro Heavy Italic';text-align:end;letter-spacing:11.48291683px;word-spacing:1.4192754px;text-anchor:end;fill:#ffffff;fill-opacity:1;stroke:none;stroke-width:0.45412132px;stroke-linecap:butt;stroke-linejoin:miter;stroke-opacity:1"
         id="path1740"
         inkscape:connector-curvature="0" />
      <path
         d="M 145.53545,164.52032 Q 147.29155,163.64237 149.28119,163.64237 151.27081,163.64237 152.6813,164.52032 154.09179,165.39839 154.65225,166.949 155.22204,168.49027 154.83907,170.42389 154.45608,172.35739 153.26044,173.90801 152.07414,175.44927 150.31804,176.32734 148.56193,177.20541 146.5723,177.20541 144.58267,177.20541 143.17219,176.32734 141.76169,175.44927 141.1919,173.90801 140.63144,172.35739 141.01442,170.42389 141.3974,168.49027 142.5837,166.949 143.77935,165.39839 145.53545,164.52032 Z M 150.73837,167.98586 Q 150.02847,167.04248 148.5993,167.04248 147.17012,167.04248 146.08657,167.98586 145.00301,168.92002 144.70411,170.42389 144.40519,171.92777 145.11511,172.87115 145.82502,173.80531 147.25419,173.80531 148.68337,173.80531 149.76691,172.87115 150.85047,171.92777 151.14938,170.42389 151.4483,168.92002 150.73837,167.98586 Z"
         style="font-style:italic;font-variant:normal;font-weight:900;font-stretch:normal;font-size:medium;line-height:1000%;font-family:'Mark Pro';-inkscape-font-specification:'Mark Pro Heavy Italic';text-align:end;letter-spacing:11.48291683px;word-spacing:1.4192754px;text-anchor:end;fill:#ffffff;fill-opacity:1;stroke:none;stroke-width:0.43785831px;stroke-linecap:butt;stroke-linejoin:miter;stroke-opacity:1"
         id="path1742"
         inkscape:connector-curvature="0" />
      <path
         d="M 184.45204,163.64225 177.86425,177.20541 H 173.52407 L 172.84592,169.271 168.99012,177.20541 H 164.64993 L 163.48738,163.64225 H 167.27536 L 167.76944,172.73928 172.03212,163.64225 H 175.95573 L 176.57577,172.749 180.71251,163.64225 Z"
         style="font-style:italic;font-variant:normal;font-weight:900;font-stretch:normal;font-size:medium;line-height:1000%;font-family:'Mark Pro';-inkscape-font-specification:'Mark Pro Heavy Italic';text-align:end;letter-spacing:11.48291683px;word-spacing:1.4192754px;text-anchor:end;fill:#ffffff;fill-opacity:1;stroke:none;stroke-width:0.45412132px;stroke-linecap:butt;stroke-linejoin:miter;stroke-opacity:1"
         id="path1744"
         inkscape:connector-curvature="0" />
      <path
         id="path1748"
         transform="matrix(0.26458333,0,0,0.26458333,-6.0475758,118.68843)"
         d="M 148.89648 0.36132812 A 124.63799 124.63799 0 0 0 70.544922 28.134766 L 63.519531 28.134766 C 63.466444 25.114696 61.027187 22.697266 57.994141 22.697266 L 29.552734 22.697266 C 26.486145 22.697266 24.017578 25.165713 24.017578 28.232422 L 24.017578 34.535156 C 9.6439263 42.817084 2.3684758e-15 58.321833 0 76.167969 L 0 173.13477 C 0 199.74426 21.421956 221.16602 48.03125 221.16602 L 69.705078 221.16602 A 124.63799 124.63799 0 0 0 148.89648 249.63867 A 124.63799 124.63799 0 0 0 228.04102 221.16602 L 249.76367 221.16602 C 276.37278 221.16602 297.79297 199.74426 297.79297 173.13477 L 297.79297 169.9043 L 251.62695 169.9043 A 112.17418 112.17418 0 0 1 148.89648 237.17383 A 112.17418 112.17418 0 0 1 36.722656 125 A 112.17418 112.17418 0 0 1 148.89648 12.824219 A 112.17418 112.17418 0 0 1 240.49219 60.480469 L 295.17773 60.480469 C 288.70305 41.622584 270.87263 28.134766 249.76367 28.134766 L 227.16992 28.134766 A 124.63799 124.63799 0 0 0 148.89648 0.36132812 z "
         style="color:#000000;clip-rule:nonzero;display:inline;overflow:visible;visibility:visible;opacity:1;isolation:auto;mix-blend-mode:normal;color-interpolation:sRGB;color-interpolation-filters:linearRGB;solid-color:#000000;solid-opacity:1;fill:#ffffff;fill-opacity:1;fill-rule:nonzero;stroke:none;stroke-width:45.89444351;stroke-linecap:square;stroke-linejoin:miter;stroke-miterlimit:4;stroke-dasharray:none;stroke-dashoffset:0;stroke-opacity:1;paint-order:markers stroke fill;color-rendering:auto;image-rendering:auto;shape-rendering:auto;text-rendering:auto;enable-background:accumulate" />
      <path
         d="M 81.136707,153.53458 H 76.928921 L 75.441832,160.98692 H 69.020312 L 73.751959,137.32869 H 84.296771 Q 88.707341,137.32869 90.633797,139.55932 92.577152,141.77306 91.833607,145.50768 91.106962,149.17471 88.301771,151.35464 85.496581,153.53458 81.136707,153.53458 Z M 83.080061,143.09116 H 79.024365 L 78.061137,147.9073 H 82.116833 Q 83.333543,147.9073 84.229176,147.28205 85.124809,146.6399 85.344492,145.50768 85.581075,144.37546 84.938923,143.73331 84.296771,143.09116 83.080061,143.09116 Z"
         style="font-style:italic;font-variant:normal;font-weight:900;font-stretch:normal;font-size:medium;line-height:1000%;font-family:'Mark Pro';-inkscape-font-specification:'Mark Pro Heavy Italic';text-align:start;letter-spacing:0.01584257px;word-spacing:3.20019817px;text-anchor:start;fill:#1ebcd2;fill-opacity:1;stroke:none;stroke-width:0.79212826px;stroke-linecap:butt;stroke-linejoin:miter;stroke-opacity:1"
         id="path3025"
         inkscape:connector-curvature="0" />
      <path
         d="M 114.46841,137.32869 113.2855,143.24325 H 106.5598 L 103.01107,160.98692 H 96.589547 L 100.13828,143.24325 H 93.412585 L 94.595496,137.32869 Z"
         style="font-style:italic;font-variant:normal;font-weight:900;font-stretch:normal;font-size:medium;line-height:1000%;font-family:'Mark Pro';-inkscape-font-specification:'Mark Pro Heavy Italic';text-align:start;letter-spacing:0.01584257px;word-spacing:3.20019817px;text-anchor:start;fill:#1ebcd2;fill-opacity:1;stroke:none;stroke-width:0.79212826px;stroke-linecap:butt;stroke-linejoin:miter;stroke-opacity:1"
         id="path3027"
         inkscape:connector-curvature="0" />
      <path
         d="M 127.23012,136.88932 Q 130.72816,136.88932 133.29677,138.47781 135.86538,140.06629 136.82861,142.88838 L 130.50848,146.03154 Q 129.34246,143.04046 125.89512,143.04046 123.41101,143.04046 121.45075,144.76414 119.5074,146.47091 118.96664,149.15781 118.39208,152.03059 119.76088,153.65287 121.12968,155.27515 123.4786,155.27515 126.87525,155.27515 129.41006,152.30097 L 133.93892,155.9849 Q 131.70829,158.55351 128.73411,159.9899 125.75993,161.42629 122.32949,161.42629 118.71316,161.42629 116.17835,159.87161 113.64354,158.31692 112.61272,155.51173 111.58189,152.70654 112.29164,149.15781 113.00139,145.60907 115.14753,142.80388 117.29367,139.99869 120.45373,138.44401 123.61379,136.88932 127.23012,136.88932 Z"
         style="font-style:italic;font-variant:normal;font-weight:900;font-stretch:normal;font-size:medium;line-height:1000%;font-family:'Mark Pro';-inkscape-font-specification:'Mark Pro Heavy Italic';text-align:start;letter-spacing:0.01584257px;word-spacing:3.20019817px;text-anchor:start;fill:#1ebcd2;fill-opacity:1;stroke:none;stroke-width:0.79212826px;stroke-linecap:butt;stroke-linejoin:miter;stroke-opacity:1"
         id="path3029"
         inkscape:connector-curvature="0" />
      <path
         d="M 146.75979,137.32869 145.00232,146.08224 H 153.75587 L 155.51333,137.32869 H 161.93485 L 157.20321,160.98692 H 150.78169 L 152.58985,151.9799 H 143.83631 L 142.02814,160.98692 H 135.60662 L 140.33827,137.32869 Z"
         style="font-style:italic;font-variant:normal;font-weight:900;font-stretch:normal;font-size:medium;line-height:1000%;font-family:'Mark Pro';-inkscape-font-specification:'Mark Pro Heavy Italic';text-align:start;letter-spacing:0.01584257px;word-spacing:3.20019817px;text-anchor:start;fill:#1ebcd2;fill-opacity:1;stroke:none;stroke-width:0.79212826px;stroke-linecap:butt;stroke-linejoin:miter;stroke-opacity:1"
         id="path3031"
         inkscape:connector-curvature="0" />
      <path
         d="M 180.22773,137.32869 184.45242,160.98692 H 177.64223 L 176.96628,156.47496 H 168.12824 L 165.67792,160.98692 H 158.96912 L 172.6571,137.32869 Z M 175.10742,143.75021 171.2714,150.74629 H 176.12134 Z"
         style="font-style:italic;font-variant:normal;font-weight:900;font-stretch:normal;font-size:medium;line-height:1000%;font-family:'Mark Pro';-inkscape-font-specification:'Mark Pro Heavy Italic';text-align:start;letter-spacing:0.01584257px;word-spacing:3.20019817px;text-anchor:start;fill:#1ebcd2;fill-opacity:1;stroke:none;stroke-width:0.79212826px;stroke-linecap:butt;stroke-linejoin:miter;stroke-opacity:1"
         id="path3033"
         inkscape:connector-curvature="0" />
      <path
         inkscape:connector-curvature="0"
         id="path1758"
         d="M 33.348009,125.37954 A 26.381651,26.381651 0 0 0 6.966312,151.76117 26.381651,26.381651 0 0 0 33.348009,178.14291 26.381651,26.381651 0 0 0 56.893968,163.65038 L 56.883673,163.63443 40.188217,163.63393 H 26.478949 L 19.624321,151.76117 26.478949,139.88853 40.188217,139.88903 45.519581,149.12333 53.671242,135.00397 53.704719,135.00135 A 26.381651,26.381651 0 0 0 33.348009,125.37954 Z"
         style="color:#000000;clip-rule:nonzero;display:inline;overflow:visible;visibility:visible;opacity:1;isolation:auto;mix-blend-mode:normal;color-interpolation:sRGB;color-interpolation-filters:linearRGB;solid-color:#000000;solid-opacity:1;fill:#1594a2;fill-opacity:1;fill-rule:nonzero;stroke:none;stroke-width:6.32457352;stroke-linecap:square;stroke-linejoin:miter;stroke-miterlimit:4;stroke-dasharray:none;stroke-dashoffset:0;stroke-opacity:1;paint-order:markers stroke fill;color-rendering:auto;image-rendering:auto;shape-rendering:auto;text-rendering:auto;enable-background:accumulate" />
      <path
         sodipodi:nodetypes="ccccc"
         id="path1760"
         d="M 56.883342,163.64234 29.525327,163.64215 37.68313,177.77193 C 45.45265,176.47726 52.237383,171.77895 56.182443,164.96147 56.428477,164.52846 56.662207,164.08858 56.883342,163.64234 Z"
         style="color:#000000;clip-rule:nonzero;display:inline;overflow:visible;visibility:visible;opacity:1;isolation:auto;mix-blend-mode:normal;color-interpolation:sRGB;color-interpolation-filters:linearRGB;solid-color:#000000;solid-opacity:1;fill:#1ebcd2;fill-opacity:1;fill-rule:nonzero;stroke:none;stroke-width:3.99270701;stroke-linecap:square;stroke-linejoin:miter;stroke-miterlimit:4;stroke-dasharray:none;stroke-dashoffset:0;stroke-opacity:1;paint-order:markers stroke fill;color-rendering:auto;image-rendering:auto;shape-rendering:auto;text-rendering:auto;enable-background:accumulate"
         inkscape:connector-curvature="0" />
      <path
         inkscape:connector-curvature="0"
         style="color:#000000;clip-rule:nonzero;display:inline;overflow:visible;visibility:visible;opacity:1;isolation:auto;mix-blend-mode:normal;color-interpolation:sRGB;color-interpolation-filters:linearRGB;solid-color:#000000;solid-opacity:1;fill:#1ebcd2;fill-opacity:1;fill-rule:nonzero;stroke:none;stroke-width:3.99270701;stroke-linecap:square;stroke-linejoin:miter;stroke-miterlimit:4;stroke-dasharray:none;stroke-dashoffset:0;stroke-opacity:1;paint-order:markers stroke fill;color-rendering:auto;image-rendering:auto;shape-rendering:auto;text-rendering:auto;enable-background:accumulate"
         d="M 21.147327,154.40788 12.995936,168.52651 C 14.994377,170.96813 17.414567,173.0315 20.141549,174.61858 24.592988,177.1839 29.696583,178.39373 34.825875,178.09957 Z"
         id="path1762"
         sodipodi:nodetypes="ccccc" />
      <path
         sodipodi:nodetypes="cccc"
         id="path1764"
         d="M 24.955433,142.5353 8.6250398,142.53514 C 5.6960185,150.40088 6.6843251,159.19098 11.286896,166.20991 Z"
         style="color:#000000;clip-rule:nonzero;display:inline;overflow:visible;visibility:visible;opacity:1;isolation:auto;mix-blend-mode:normal;color-interpolation:sRGB;color-interpolation-filters:linearRGB;solid-color:#000000;solid-opacity:1;fill:#1ebcd2;fill-opacity:1;fill-rule:nonzero;stroke:none;stroke-width:3.99270701;stroke-linecap:square;stroke-linejoin:miter;stroke-miterlimit:4;stroke-dasharray:none;stroke-dashoffset:0;stroke-opacity:1;paint-order:markers stroke fill;color-rendering:auto;image-rendering:auto;shape-rendering:auto;text-rendering:auto;enable-background:accumulate"
         inkscape:connector-curvature="0" />
      <path
         inkscape:connector-curvature="0"
         style="color:#000000;clip-rule:nonzero;display:inline;overflow:visible;visibility:visible;opacity:1;isolation:auto;mix-blend-mode:normal;color-interpolation:sRGB;color-interpolation-filters:linearRGB;solid-color:#000000;solid-opacity:1;fill:#1ebcd2;fill-opacity:1;fill-rule:nonzero;stroke:none;stroke-width:3.99270701;stroke-linecap:square;stroke-linejoin:miter;stroke-miterlimit:4;stroke-dasharray:none;stroke-dashoffset:0;stroke-opacity:1;paint-order:markers stroke fill;color-rendering:auto;image-rendering:auto;shape-rendering:auto;text-rendering:auto;enable-background:accumulate"
         d="M 28.983289,125.76699 C 21.213889,127.06184 14.429325,131.76023 10.484414,138.5777 10.23838,139.01071 10.00466,139.4506 9.7835354,139.89684 L 37.14152,139.89701 Z"
         id="path1766"
         sodipodi:nodetypes="ccccc" />
      <path
         sodipodi:nodetypes="ccccc"
         id="path1768"
         d="M 46.525308,128.92058 C 42.073889,126.35498 36.970225,125.14492 31.840802,125.43891 L 45.519531,149.13129 53.671181,135.01222 C 51.672629,132.57073 49.25235,130.50751 46.525308,128.92058 Z"
         style="color:#000000;clip-rule:nonzero;display:inline;overflow:visible;visibility:visible;opacity:1;isolation:auto;mix-blend-mode:normal;color-interpolation:sRGB;color-interpolation-filters:linearRGB;solid-color:#000000;solid-opacity:1;fill:#1ebcd2;fill-opacity:1;fill-rule:nonzero;stroke:none;stroke-width:3.99270701;stroke-linecap:square;stroke-linejoin:miter;stroke-miterlimit:4;stroke-dasharray:none;stroke-dashoffset:0;stroke-opacity:1;paint-order:markers stroke fill;color-rendering:auto;image-rendering:auto;shape-rendering:auto;text-rendering:auto;enable-background:accumulate"
         inkscape:connector-curvature="0" />
      <path
         inkscape:connector-curvature="0"
         id="path1776"
         style="font-style:italic;font-variant:normal;font-weight:900;font-stretch:normal;font-size:medium;line-height:1000%;font-family:'Mark Pro';-inkscape-font-specification:'Mark Pro Heavy Italic';text-align:end;letter-spacing:0px;word-spacing:1.4192754px;text-anchor:end;fill:#ffffff;fill-opacity:1;stroke:none;stroke-width:0.52398372px;stroke-linecap:butt;stroke-linejoin:miter;stroke-opacity:1"
         d="M 91.15665,170.42368 81.353275,175.50991 83.387715,165.33758 Z" />
      <g
         id="g3051">
        <path
           style="font-style:italic;font-variant:normal;font-weight:900;font-stretch:normal;font-size:medium;line-height:1000%;font-family:'Mark Pro';-inkscape-font-specification:'Mark Pro Heavy Italic';text-align:start;letter-spacing:0.01584257px;word-spacing:3.20019817px;text-anchor:start;fill:#1ebcd2;fill-opacity:1;stroke:none;stroke-width:2.9938705px;stroke-linecap:butt;stroke-linejoin:miter;stroke-opacity:1"
           d="M 232.27734 70.451172 C 246.39388 91.978749 251.51248 117.91431 247.02539 142.81445 L 248.5625 142.81445 L 251.11719 159.86914 L 276.85742 159.86914 L 260.89062 70.451172 L 232.27734 70.451172 z M 232.27734 70.451172 L 180.54297 159.86914 L 180.65039 159.86914 L 232.27734 70.451172 z "
           id="path3023"
           transform="matrix(0.26458333,0,0,0.26458333,-6.0475758,118.68843)" />
        <path
           id="path1772"
           d="M 55.409019,137.32871 41.740221,161.0037 58.070888,161.00345 C 60.999893,153.13767 60.011588,144.34758 55.409019,137.32871 Z"
           style="color:#000000;clip-rule:nonzero;display:inline;overflow:visible;visibility:visible;opacity:1;isolation:auto;mix-blend-mode:normal;color-interpolation:sRGB;color-interpolation-filters:linearRGB;solid-color:#000000;solid-opacity:1;fill:#1594a2;fill-opacity:1;fill-rule:nonzero;stroke:none;stroke-width:3.99270701;stroke-linecap:square;stroke-linejoin:miter;stroke-miterlimit:4;stroke-dasharray:none;stroke-dashoffset:0;stroke-opacity:1;paint-order:markers stroke fill;color-rendering:auto;image-rendering:auto;shape-rendering:auto;text-rendering:auto;enable-background:accumulate"
           inkscape:connector-curvature="0"
           sodipodi:nodetypes="cccc" />
      </g>
    </g>
  </g>
</svg>
